<?xml version="1.0" encoding="utf-8"?>
<!-- Generator: Adobe Illustrator 24.3.0, SVG Export Plug-In . SVG Version: 6.00 Build 0)  -->
<svg version="1.1" id="图层_1" xmlns="http://www.w3.org/2000/svg" xmlns:xlink="http://www.w3.org/1999/xlink" x="0px" y="0px"
	 viewBox="0 0 512 512" style="enable-background:new 0 0 512 512;" xml:space="preserve">
<style type="text/css">
	.st0{fill:#FFFFFF;}
</style>
<g>
	<path class="st0" d="M491.6,20.1c-2.8-2.8-6.2-4.2-10.1-4.4h-25.8v0.2c-12.4,0.6-24.4,2.2-35.9,4.9c-3.5,0.8-6.8,1.7-10.3,2.8
		c-11.1,3.2-21.7,7.6-31.9,13c-10.2,5.4-20,11.8-29.4,19.3l-4.4,3.7l-0.2,0.1l-2.8,2.5l-0.2,0.3l-9.5,8.9
		c-20.1,20.1-34.8,42.4-44,67.1c-1.3,3.5-2.5,7.1-3.6,10.7c-16.7-17.1-25-37.8-25-61.8c0-24.6,8.7-45.5,26-62.9
		c3.1-3.1,6.4-6,9.8-8.6H30.5c-4,0.1-7.3,1.6-10.2,4.4l0,0c-3,2.9-4.4,6.4-4.4,10.6c0,1.1,0.1,2.3,0.4,3.3l206.2,443.7
		c1.6,2.5,3.5,4.8,5.7,7l0.1,0.1c7.6,7.6,16.8,11.5,27.7,11.5c10.8,0,20-3.9,27.7-11.5v-0.1c2.4-2.3,4.4-4.7,6-7.4l206-443.4
		c0.2-1.1,0.3-2.1,0.3-3.2C496,26.5,494.5,23,491.6,20.1z M250.7,26.4c-8.4,15.7-12.6,33.3-12.6,52.6c0,31.3,11.1,58,33.2,80.1
		c2.6,2.6,5.2,4.9,8,7.3c-0.1,0.4,3.2,2.8,10,7.2l10.2,6.5c3.2,2.3,6.4,5.1,9.5,8.1c14.8,14.8,22.2,32.5,22.2,53.4
		s-7.3,38.7-22.2,53.4c-10.2,10.2-21.8,16.9-34.9,20c-4.2,8.7-8.5,15.9-12.7,21.7c-2.3,3-4.2,5.2-5.5,6.4c-1.4-1.2-3.2-3.4-5.5-6.4
		c-4.3-5.8-8.5-13-12.7-21.7c-5-1.1-9.8-2.8-14.4-4.9c-17.5-7.3-33.6-18.2-48.1-32.8c-29-29-43.5-64-43.5-105.1
		c0-41,14.5-76,43.5-105.1C196.8,45.5,222,31.8,250.7,26.4z"/>
	<path class="st0" d="M255.5,221.3c-5.6,0-10.5,2-14.5,6c-4,4-6,8.8-6,14.5c0,5.6,2,10.4,6,14.4c4,4,8.8,6,14.5,6s10.4-2,14.5-6
		c4-4,6-8.8,6-14.4c0-5.6-2-10.5-6-14.5C266,223.2,261.2,221.3,255.5,221.3z"/>
</g>
</svg>
