<?xml version="1.0" encoding="UTF-8"?>
<svg width="422px" height="422px" viewBox="0 0 422 422" version="1.1" xmlns="http://www.w3.org/2000/svg" xmlns:xlink="http://www.w3.org/1999/xlink">
    <title>Mask</title>
    <defs>
        <path d="M412,128.313533 C412,123.422551 412,118.531068 411.971951,113.639586 C411.947451,109.519101 411.899951,105.399616 411.787952,101.281131 C411.545954,92.3046639 411.016458,83.2511969 409.41997,74.3747292 C407.800981,65.370262 405.157001,56.9897925 400.990532,48.8083223 C396.894562,40.7668516 391.544102,33.4083784 385.160149,27.0289016 C378.777696,20.6494248 371.417251,15.3024443 363.37281,11.2089592 C355.182871,7.04147436 346.793433,4.39848399 337.779,2.77998988 C328.901565,1.18599568 319.845633,0.657497606 310.869199,0.414998489 C306.747729,0.303498895 302.62626,0.256499066 298.50379,0.230999159 C293.609827,0.200999268 288.715863,0.203499259 283.821899,0.203499259 L226.99832,0 L184.498634,0 L128.680548,0.203499259 C123.777084,0.203499259 118.87362,0.200999268 113.970156,0.230999159 C109.839187,0.256499066 105.710218,0.303498895 101.580748,0.414998489 C92.5833147,0.657497606 83.5068819,1.18649568 74.6084478,2.78248987 C65.5820146,4.40048398 57.1800768,7.04247436 48.9791375,11.2069592 C40.9176971,15.3009443 33.5412517,20.6484248 27.1452991,27.0289016 C20.7503464,33.4078784 15.3898861,40.7648516 11.2864165,48.8048223 C7.10844738,56.9902925 4.45946699,65.375762 2.836479,74.3852292 C1.23849083,83.2581969 0.708994752,92.3086639 0.465496554,101.281131 C0.354497376,105.400116 0.306497731,109.519601 0.281497916,113.639586 C0.251498138,118.531568 0,124.608046 0,129.499529 L0,184.544328 L0,227.499172 L0.25399812,283.713467 C0.25399812,288.611449 0.251998135,293.509431 0.281497916,298.407414 C0.306497731,302.533399 0.354497376,306.658384 0.465996551,310.782869 C0.708994752,319.770836 1.23949083,328.837303 2.83897899,337.72577 C4.46146698,346.742238 7.10994737,355.134707 11.2844165,363.326677 C15.3883861,371.379648 20.7498464,378.747621 27.1452991,385.136098 C33.5407517,391.524575 40.9151971,396.878555 48.9751375,400.97804 C57.1810767,405.151025 65.5870145,407.797515 74.6189477,409.418009 C83.5133818,411.014504 92.5868147,411.544002 101.580748,411.786501 C105.710218,411.898 109.839687,411.9455 113.970656,411.9705 C118.87412,412 123.777084,412 128.680548,412 L185.003131,412 L227.608315,412 L283.821899,412 C288.715863,412 293.609827,412 298.50379,411.9705 C302.62626,411.9455 306.747729,411.898 310.869199,411.786501 C319.849133,411.543502 328.908065,411.013504 337.7895,409.416009 C346.798433,407.795515 355.183871,405.150025 363.36931,400.97954 C371.415251,396.880555 378.777196,391.525575 385.160149,385.136098 C391.543102,378.748621 396.893062,371.381648 400.989032,363.330177 C405.158001,355.134207 407.801981,346.737738 409.421969,337.71527 C411.016958,328.830303 411.545954,319.767336 411.788452,310.782869 C411.899951,306.657884 411.947451,302.532899 411.971951,298.407414 C412,293.509431 412,288.611449 412,283.713467 C412,283.713467 412,228.491668 412,227.499172 L412,184.499328 C412,183.766331 412,128.313533 412,128.313533" id="path-1"></path>
        <filter x="-2.4%" y="-1.2%" width="104.9%" height="104.9%" filterUnits="objectBoundingBox" id="filter-3">
            <feOffset dx="0" dy="5" in="SourceAlpha" result="shadowOffsetOuter1"></feOffset>
            <feGaussianBlur stdDeviation="2.5" in="shadowOffsetOuter1" result="shadowBlurOuter1"></feGaussianBlur>
            <feColorMatrix values="0 0 0 0 0   0 0 0 0 0   0 0 0 0 0  0 0 0 0.3 0" type="matrix" in="shadowBlurOuter1"></feColorMatrix>
        </filter>
    </defs>
    <g id="Template---Icons---App" stroke="none" stroke-width="1" fill="none" fill-rule="evenodd">
        <g id="App-Icons---@2x" transform="translate(-28.000000, 0.000000)">
            <g id="Artwork" transform="translate(33.000000, 0.000000)">
                <mask id="mask-2" fill="white">
                    <use xlink:href="#path-1"></use>
                </mask>
                <g id="Mask">
                    <use fill="black" fill-opacity="1" filter="url(#filter-3)" xlink:href="#path-1"></use>
                    <use fill="#FFFFFF" fill-rule="evenodd" xlink:href="#path-1"></use>
                </g>
            </g>
        </g>
    </g>
</svg>